<svg width="45" height="45" viewBox="0 0 45 45" fill="none" xmlns="http://www.w3.org/2000/svg">
<circle cx="22.5" cy="22.5" r="22.5" fill="#FF0000"/>
<path d="M22.4903 11.8834C22.4903 11.8834 13.0074 11.8834 10.6274 12.5018C9.353 12.8579 8.30366 13.9072 7.94759 15.2004C7.32914 17.5804 7.32913 22.5093 7.32913 22.5093C7.32913 22.5093 7.32914 27.457 7.94759 29.7996C8.30366 31.0927 9.33426 32.1233 10.6274 32.4794C13.0262 33.1165 22.4903 33.1166 22.4903 33.1166C22.4903 33.1166 31.9919 33.1166 34.3719 32.4981C35.665 32.142 36.6956 31.1302 37.0329 29.8183C37.6701 27.457 37.6701 22.5281 37.6701 22.5281C37.6701 22.5281 37.6889 17.5804 37.0329 15.2004C36.6956 13.9072 35.665 12.8767 34.3719 12.5393C31.9919 11.8834 22.4903 11.8834 22.4903 11.8834ZM19.473 17.9554L27.3629 22.5093L19.473 27.0445V17.9554Z" fill="white"/>
</svg>
