<svg width="45" height="45" viewBox="0 0 45 45" fill="none" xmlns="http://www.w3.org/2000/svg">
<circle cx="22.5" cy="22.5" r="22.5" fill="#2FA4F0"/>
<path d="M18.3261 31.7859C26.8172 31.7859 31.4604 24.7515 31.4604 18.6517C31.4604 18.4518 31.4563 18.2529 31.4473 18.0549C32.3487 17.4033 33.1321 16.5902 33.75 15.6645C32.9229 16.0322 32.0328 16.2797 31.099 16.3913C32.0521 15.8198 32.7838 14.9157 33.129 13.838C32.2371 14.3667 31.2493 14.751 30.1977 14.9585C29.3553 14.0612 28.156 13.5 26.828 13.5C24.2788 13.5 22.2114 15.5673 22.2114 18.1157C22.2114 18.4779 22.2519 18.8303 22.3311 19.1683C18.4944 18.9752 15.0924 17.1383 12.8158 14.3451C12.4193 15.0273 12.1907 15.8198 12.1907 16.6653C12.1907 18.2669 13.0057 19.6808 14.245 20.5079C13.4877 20.4845 12.7762 20.2766 12.1543 19.9306C12.1536 19.9499 12.1536 19.9688 12.1536 19.9895C12.1536 22.2251 13.7448 24.0918 15.8571 24.5148C15.4692 24.6205 15.0611 24.6772 14.6399 24.6772C14.3429 24.6772 14.0535 24.648 13.7723 24.594C14.36 26.4282 16.0641 27.7629 18.0847 27.8002C16.5047 29.0387 14.5143 29.7762 12.3512 29.7762C11.979 29.7762 11.6114 29.755 11.25 29.7123C13.293 31.0218 15.719 31.7859 18.3263 31.7859" fill="white"/>
</svg>
