<svg width="45" height="45" viewBox="0 0 45 45" fill="none" xmlns="http://www.w3.org/2000/svg">
<circle cx="22.5" cy="22.5" r="22.5" fill="#DF2E75"/>
<path d="M22.5 12.2531C25.8375 12.2531 26.2333 12.2656 27.5521 12.326C30.9396 12.4802 32.5219 14.0875 32.676 17.45C32.7365 18.7677 32.7479 19.1635 32.7479 22.501C32.7479 25.8396 32.7354 26.2344 32.676 27.5521C32.5208 30.9115 30.9427 32.5219 27.5521 32.676C26.2333 32.7365 25.8396 32.749 22.5 32.749C19.1625 32.749 18.7667 32.7365 17.449 32.676C14.0531 32.5208 12.4792 30.9062 12.325 27.551C12.2646 26.2333 12.2521 25.8385 12.2521 22.5C12.2521 19.1625 12.2656 18.7677 12.325 17.449C12.4802 14.0875 14.0583 12.4792 17.449 12.325C18.7677 12.2656 19.1625 12.2531 22.5 12.2531ZM22.5 10C19.1052 10 18.6802 10.0146 17.3469 10.075C12.8073 10.2833 10.2844 12.8021 10.076 17.3458C10.0146 18.6802 10 19.1052 10 22.5C10 25.8948 10.0146 26.3208 10.075 27.6542C10.2833 32.1937 12.8021 34.7167 17.3458 34.925C18.6802 34.9854 19.1052 35 22.5 35C25.8948 35 26.3208 34.9854 27.6542 34.925C32.1896 34.7167 34.7188 32.1979 34.924 27.6542C34.9854 26.3208 35 25.8948 35 22.5C35 19.1052 34.9854 18.6802 34.925 17.3469C34.7208 12.8115 32.199 10.2844 27.6552 10.076C26.3208 10.0146 25.8948 10 22.5 10V10ZM22.5 16.0812C18.9552 16.0812 16.0812 18.9552 16.0812 22.5C16.0812 26.0448 18.9552 28.9198 22.5 28.9198C26.0448 28.9198 28.9188 26.0458 28.9188 22.5C28.9188 18.9552 26.0448 16.0812 22.5 16.0812ZM22.5 26.6667C20.199 26.6667 18.3333 24.8021 18.3333 22.5C18.3333 20.199 20.199 18.3333 22.5 18.3333C24.801 18.3333 26.6667 20.199 26.6667 22.5C26.6667 24.8021 24.801 26.6667 22.5 26.6667ZM29.1729 14.3281C28.3438 14.3281 27.6719 15 27.6719 15.8281C27.6719 16.6562 28.3438 17.3281 29.1729 17.3281C30.001 17.3281 30.6719 16.6562 30.6719 15.8281C30.6719 15 30.001 14.3281 29.1729 14.3281Z" fill="white"/>
</svg>
